<svg width="20" height="30" viewBox="0 0 20 30" fill="none" xmlns="http://www.w3.org/2000/svg">
<path d="M9.28977 29.9091V0.81818H11.1534V29.9091H9.28977ZM13.7784 10.7045C13.7027 9.87121 13.3655 9.22348 12.767 8.76136C12.1761 8.29167 11.3314 8.05682 10.233 8.05682C9.50568 8.05682 8.89962 8.15151 8.41477 8.34091C7.92992 8.5303 7.56629 8.79167 7.32386 9.125C7.08144 9.45076 6.95644 9.82576 6.94886 10.25C6.93371 10.5985 7.00189 10.9053 7.15341 11.1705C7.3125 11.4356 7.53977 11.6705 7.83523 11.875C8.13826 12.072 8.50189 12.2462 8.92614 12.3977C9.35038 12.5492 9.82765 12.6818 10.358 12.7955L12.358 13.25C13.5095 13.5 14.5246 13.8333 15.4034 14.25C16.2898 14.6667 17.0322 15.1629 17.6307 15.7386C18.2367 16.3144 18.6951 16.9773 19.0057 17.7273C19.3163 18.4773 19.4754 19.3182 19.483 20.25C19.4754 21.7197 19.1042 22.9811 18.3693 24.0341C17.6345 25.0871 16.5777 25.8939 15.1989 26.4545C13.8277 27.0152 12.1723 27.2955 10.233 27.2955C8.28598 27.2955 6.58902 27.0038 5.14205 26.4205C3.69508 25.8371 2.57008 24.9508 1.76705 23.7614C0.964015 22.572 0.551136 21.0682 0.528409 19.25H5.91477C5.96023 20 6.16099 20.625 6.51705 21.125C6.87311 21.625 7.36174 22.0038 7.98295 22.2614C8.61174 22.5189 9.33902 22.6477 10.1648 22.6477C10.9223 22.6477 11.5663 22.5455 12.0966 22.3409C12.6345 22.1364 13.0473 21.8523 13.3352 21.4886C13.6231 21.125 13.7708 20.7083 13.7784 20.2386C13.7708 19.7992 13.6345 19.4242 13.3693 19.1136C13.1042 18.7955 12.6951 18.5227 12.142 18.2955C11.5966 18.0606 10.8996 17.8447 10.0511 17.6477L7.61932 17.0795C5.60417 16.6174 4.01705 15.8712 2.85795 14.8409C1.69886 13.803 1.12311 12.4015 1.13068 10.6364C1.12311 9.19697 1.50947 7.93561 2.28977 6.85227C3.07008 5.76894 4.14962 4.92424 5.52841 4.31818C6.9072 3.71212 8.47917 3.40909 10.2443 3.40909C12.0473 3.40909 13.6117 3.71591 14.9375 4.32954C16.2708 4.93561 17.3049 5.78788 18.0398 6.88636C18.7746 7.98485 19.1496 9.25757 19.1648 10.7045H13.7784Z" fill="#F5AF66"/>
</svg>
