<svg width="32" height="31" viewBox="0 0 32 31" fill="none" xmlns="http://www.w3.org/2000/svg">
<ellipse cx="14.4815" cy="14.8701" rx="14.4815" ry="14.8701" fill="#F5AF66"/>
<path d="M25.6974 17.3928L30.1858 27.6752L19.2695 26.5254L25.6974 17.3928Z" fill="#F5AF66"/>
<path d="M11.747 23.0568C11.5718 23.0568 11.4215 22.9941 11.296 22.8686C11.1705 22.7431 11.1078 22.5928 11.1078 22.4176C11.1078 22.2424 11.1705 22.0921 11.296 21.9666C11.4215 21.8411 11.5718 21.7784 11.747 21.7784C11.9222 21.7784 12.0725 21.8411 12.198 21.9666C12.3234 22.0921 12.3862 22.2424 12.3862 22.4176C12.3862 22.5336 12.3566 22.6402 12.2974 22.7372C12.2406 22.8343 12.1636 22.9124 12.0666 22.9716C11.9719 23.0284 11.8654 23.0568 11.747 23.0568ZM14.5009 23.0568C14.3257 23.0568 14.1754 22.9941 14.0499 22.8686C13.9244 22.7431 13.8617 22.5928 13.8617 22.4176C13.8617 22.2424 13.9244 22.0921 14.0499 21.9666C14.1754 21.8411 14.3257 21.7784 14.5009 21.7784C14.6761 21.7784 14.8264 21.8411 14.9519 21.9666C15.0774 22.0921 15.1401 22.2424 15.1401 22.4176C15.1401 22.5336 15.1105 22.6402 15.0513 22.7372C14.9945 22.8343 14.9176 22.9124 14.8205 22.9716C14.7258 23.0284 14.6193 23.0568 14.5009 23.0568ZM17.2548 23.0568C17.0796 23.0568 16.9293 22.9941 16.8038 22.8686C16.6783 22.7431 16.6156 22.5928 16.6156 22.4176C16.6156 22.2424 16.6783 22.0921 16.8038 21.9666C16.9293 21.8411 17.0796 21.7784 17.2548 21.7784C17.43 21.7784 17.5803 21.8411 17.7058 21.9666C17.8313 22.0921 17.894 22.2424 17.894 22.4176C17.894 22.5336 17.8644 22.6402 17.8052 22.7372C17.7484 22.8343 17.6715 22.9124 17.5744 22.9716C17.4797 23.0284 17.3732 23.0568 17.2548 23.0568Z" fill="white" fill-opacity="0.4"/>
</svg>
