<svg width="70" height="70" viewBox="0 0 70 70" fill="none" xmlns="http://www.w3.org/2000/svg">
<rect width="70" height="70" rx="20" fill="white"/>
<path d="M3.69565 29.8697H7.04347C9.8049 29.8697 12.0435 32.1083 12.0435 34.8697V52.0001C12.0435 54.7615 9.8049 57.0001 7.04347 57.0001H3.69565" stroke="black" stroke-width="2"/>
<path d="M16.2174 34.0436H20.217C23.7127 34.0436 27.1335 35.0561 30.066 36.9587L30.8673 37.4786C33.2768 39.0419 36.0877 39.8738 38.96 39.8738H39.7051C41.9743 39.8738 44.1989 40.5046 46.1304 41.6958V41.6958" stroke="black" stroke-width="2"/>
<path d="M16.913 48.4406H17.2185C19.0746 48.4406 20.9098 48.8322 22.6042 49.5899V49.5899L25.1698 50.9061C26.6804 51.6811 28.2448 52.3465 29.8508 52.8973L30.5266 53.1291C32.4606 53.7923 34.4598 54.2475 36.4903 54.4869L37.566 54.6137C39.2528 54.8126 40.9579 54.798 42.6409 54.5703V54.5703C44.8124 54.2766 46.9217 53.6316 48.8861 52.6607L50.0811 52.0701L61.2364 45.2334C61.9517 44.7951 62.5712 44.2171 63.0581 43.5339L63.7273 42.5951C64.0461 42.1479 64.2174 41.6124 64.2174 41.0632V41.0632C64.2174 39.9688 63.542 38.988 62.5197 38.5975L62.4531 38.5721C61.8533 38.343 61.1921 38.3316 60.5847 38.5399L58.5262 39.2459L48.9796 43.7223V43.7223C46.9552 44.6828 44.7754 45.2844 42.545 45.4995V45.4995C41.4527 45.6049 40.3516 45.6173 39.2573 45.5364L38.141 45.4539C35.6248 45.268 33.1388 44.7897 30.7332 44.0288L29.7641 43.7223" stroke="black" stroke-width="2"/>
<circle cx="44.0967" cy="21.5751" r="12.575" stroke="black" stroke-width="2"/>
<path d="M43.3305 28.5416V13.9962H44.2623V28.5416H43.3305ZM45.8021 18.7973C45.7567 18.339 45.5616 17.9829 45.2169 17.7291C44.8722 17.4753 44.4044 17.3484 43.8135 17.3484C43.412 17.3484 43.073 17.4052 42.7964 17.5189C42.5199 17.6287 42.3078 17.7821 42.1601 17.9791C42.0161 18.1761 41.9442 18.3996 41.9442 18.6496C41.9366 18.8579 41.9802 19.0397 42.0748 19.195C42.1733 19.3503 42.3078 19.4848 42.4783 19.5984C42.6487 19.7083 42.8457 19.8049 43.0692 19.8882C43.2927 19.9677 43.5313 20.0359 43.7851 20.0927L44.8305 20.3427C45.3381 20.4564 45.804 20.6079 46.2283 20.7973C46.6525 20.9867 47.0199 21.2196 47.3305 21.4962C47.6411 21.7727 47.8817 22.0984 48.0521 22.4734C48.2264 22.8484 48.3154 23.2784 48.3192 23.7632C48.3154 24.4753 48.1336 25.0927 47.7737 25.6155C47.4177 26.1344 46.9025 26.5378 46.2283 26.8257C45.5578 27.1098 44.7491 27.2518 43.8021 27.2518C42.8627 27.2518 42.0445 27.1079 41.3476 26.82C40.6544 26.5321 40.1127 26.106 39.7226 25.5416C39.3362 24.9734 39.1336 24.2708 39.1146 23.4337H41.4953C41.5218 23.8238 41.6336 24.1496 41.8305 24.4109C42.0313 24.6685 42.2983 24.8636 42.6317 24.9962C42.9688 25.1249 43.3495 25.1893 43.7737 25.1893C44.1904 25.1893 44.5521 25.1287 44.8589 25.0075C45.1695 24.8863 45.4101 24.7177 45.5805 24.5018C45.751 24.2859 45.8362 24.0378 45.8362 23.7575C45.8362 23.4962 45.7586 23.2765 45.6033 23.0984C45.4517 22.9204 45.2283 22.7689 44.9328 22.6439C44.6411 22.5189 44.2832 22.4052 43.8589 22.303L42.5919 21.9848C41.6108 21.7462 40.8362 21.3731 40.268 20.8655C39.6998 20.3579 39.4177 19.6742 39.4214 18.8143C39.4177 18.1098 39.6052 17.4943 39.9839 16.9677C40.3665 16.4412 40.8911 16.0302 41.5578 15.7348C42.2245 15.4393 42.982 15.2916 43.8305 15.2916C44.6942 15.2916 45.448 15.4393 46.0919 15.7348C46.7396 16.0302 47.2434 16.4412 47.6033 16.9677C47.9631 17.4943 48.1487 18.1041 48.1601 18.7973H45.8021Z" fill="black"/>
<circle cx="7" cy="50.0001" r="2" fill="black"/>
</svg>
