<svg width="70" height="70" viewBox="0 0 70 70" fill="none" xmlns="http://www.w3.org/2000/svg">
<rect width="70" height="70" rx="20" fill="white"/>
<path d="M65 23.263L63.3872 24.2078C61.0045 25.6035 57.9414 24.8034 56.5457 22.4207L50.3162 11.7863C48.9205 9.40355 49.7206 6.3405 52.1033 4.94475L53.7161 4" stroke="black" stroke-width="2"/>
<circle cx="60.5077" cy="19.3906" r="1.64573" transform="rotate(149.639 60.5077 19.3906)" fill="black"/>
<path d="M17.9038 55.6606V41.1151H18.8356V55.6606H17.9038ZM20.3754 45.9163C20.3299 45.4579 20.1348 45.1019 19.7902 44.8481C19.4455 44.5943 18.9777 44.4674 18.3867 44.4674C17.9852 44.4674 17.6462 44.5242 17.3697 44.6379C17.0932 44.7477 16.8811 44.9011 16.7333 45.0981C16.5894 45.2951 16.5174 45.5185 16.5174 45.7685C16.5098 45.9769 16.5534 46.1587 16.6481 46.314C16.7466 46.4693 16.8811 46.6038 17.0515 46.7174C17.222 46.8273 17.4189 46.9238 17.6424 47.0072C17.8659 47.0867 18.1045 47.1549 18.3583 47.2117L19.4038 47.4617C19.9114 47.5754 20.3773 47.7269 20.8015 47.9163C21.2258 48.1057 21.5932 48.3386 21.9038 48.6151C22.2144 48.8916 22.4549 49.2174 22.6254 49.5924C22.7996 49.9674 22.8886 50.3973 22.8924 50.8822C22.8886 51.5943 22.7068 52.2117 22.347 52.7344C21.9909 53.2534 21.4758 53.6568 20.8015 53.9447C20.1311 54.2288 19.3223 54.3708 18.3754 54.3708C17.436 54.3708 16.6178 54.2269 15.9208 53.939C15.2277 53.6511 14.686 53.225 14.2958 52.6606C13.9095 52.0924 13.7068 51.3898 13.6879 50.5526H16.0686C16.0951 50.9428 16.2068 51.2685 16.4038 51.5299C16.6045 51.7875 16.8716 51.9826 17.2049 52.1151C17.542 52.2439 17.9227 52.3083 18.347 52.3083C18.7636 52.3083 19.1254 52.2477 19.4322 52.1265C19.7428 52.0053 19.9833 51.8367 20.1538 51.6208C20.3242 51.4049 20.4095 51.1568 20.4095 50.8765C20.4095 50.6151 20.3318 50.3954 20.1765 50.2174C20.025 50.0394 19.8015 49.8879 19.5061 49.7629C19.2144 49.6379 18.8564 49.5242 18.4322 49.4219L17.1652 49.1038C16.1841 48.8651 15.4095 48.492 14.8413 47.9844C14.2731 47.4769 13.9909 46.7932 13.9947 45.9333C13.9909 45.2288 14.1784 44.6132 14.5572 44.0867C14.9398 43.5602 15.4644 43.1492 16.1311 42.8538C16.7977 42.5583 17.5553 42.4106 18.4038 42.4106C19.2674 42.4106 20.0212 42.5583 20.6652 42.8538C21.3129 43.1492 21.8167 43.5602 22.1765 44.0867C22.5364 44.6132 22.722 45.2231 22.7333 45.9163H20.3754Z" fill="black"/>
<circle cx="18.5773" cy="47.6118" r="12.5773" stroke="black" stroke-width="2"/>
<path d="M45.7318 12.2286L40.3832 15.1087L32.1545 18.4001L24.2325 20.8377C22.4518 21.3856 20.952 22.6011 20.0472 24.2298V24.2298C19.6194 24.9997 19.3363 25.8415 19.2117 26.7134L18.1658 34.0346M51.4919 21.6916L51.163 21.8766C48.1894 23.5496 46.046 26.3845 45.2469 29.7015V29.7015C44.7174 31.8996 43.5912 33.9088 41.9924 35.5076L41.5487 35.9513C40.1963 37.3037 38.5897 38.3754 36.8215 39.1045L33.9818 40.2755C32.7662 40.7767 31.5991 41.3883 30.4951 42.1026L26.3624 44.7768C25.5777 45.2845 24.6629 45.5547 23.7283 45.5547H22.8493C21.9673 45.5547 21.1308 45.1629 20.5662 44.4853V44.4853C19.8506 43.6267 19.6773 42.4393 20.1176 41.412L20.2313 41.1467C20.4944 40.5329 20.9303 40.0088 21.486 39.6383L26.8059 36.0917L31.2611 33.209C32.5339 32.3854 32.6651 30.5727 31.5242 29.5744V29.5744C30.8979 29.0264 30.023 28.8626 29.2408 29.147L27.9118 29.6303C26.6826 30.0773 25.6968 31.0187 25.1937 32.2261L23.9259 35.2689" stroke="black" stroke-width="2"/>
<rect x="25.0184" y="38.4763" width="7.40579" height="5.01336" transform="rotate(-32.9548 25.0184 38.4763)" fill="white"/>
<rect x="28.8631" y="40.8775" width="4.11433" height="0.457234" transform="rotate(-21.2968 28.8631 40.8775)" fill="white"/>
</svg>
